<?xml version="1.0" encoding="UTF-8" standalone="no"?>
<svg width="512px" height="88px" viewBox="0 0 512 88" version="1.1" xmlns="http://www.w3.org/2000/svg" xmlns:xlink="http://www.w3.org/1999/xlink" preserveAspectRatio="xMidYMid">
    <g stroke="none" stroke-width="1" fill="none" fill-rule="evenodd">
        <path d="M44.2309087,2.23771374 L0,87.1968619 L14.7504172,87.1968619 L27.6403881,62.5542705 L67.3607316,62.5542705 L80.4189934,87.1968619 L95.9498364,87.1968619 L51.0790525,2.23771374 L44.2309087,2.23771374 Z M60.6919748,49.3517594 L34.5606565,49.3517594 L47.6577546,24.3226538 L60.6919748,49.3517594 Z M198.747817,2.23771374 L164.447918,64.8252725 L130.381038,2.23771374 L124.415035,2.23771374 L111.049781,87.2024099 L124.446474,87.2024099 L132.792591,34.2814046 L161.603618,87.2024099 L167.336603,87.2024099 L196.358456,34.3868176 L204.423472,87.2024099 L217.818316,87.2024099 L204.911701,2.23771374 L198.747817,2.23771374 Z M276.424224,2.23771374 L232.195164,87.1968619 L246.943732,87.1968619 L259.833703,62.5542705 L299.552197,62.5542705 L312.614158,87.1968619 L328.143151,87.1968619 L283.276066,2.23771374 L276.424224,2.23771374 L276.424224,2.23771374 Z M292.887139,49.3517594 L266.75767,49.3517594 L279.852919,24.3226538 L292.887139,49.3517594 Z M388.964581,48.5620869 C393.939333,46.7441756 397.835914,43.9904932 400.55076,40.3861096 C403.382115,36.622682 404.667413,30.0537901 404.667413,25.5395262 C404.667413,19.7991432 402.65532,14.8946665 398.686615,10.9592493 C394.795582,7.09595671 389.691375,4.54755214 383.523792,3.38246151 C379.451523,2.60573443 375.549394,2.23771374 364.40521,2.23771374 L343.122888,2.23771374 L343.122888,87.2005606 L356.353139,87.2005606 L356.353139,51.3398109 L364.444046,51.3398109 L391.914294,87.2024099 L409.274144,87.2024099 L381.130733,50.6315097 C383.429475,50.1266371 386.909953,49.3110737 388.964581,48.5620869 Z M389.327053,32.6872648 C387.88456,34.5310669 385.829932,35.8977367 383.220499,36.7521365 C380.472364,37.6546194 376.098651,38.1040115 370.234362,38.1040115 L356.353139,38.011544 L356.353139,15.4698144 L370.593136,15.4698144 C376.638662,15.4698144 380.973538,15.8933156 383.5016,16.7236738 C385.931646,17.5244425 387.82723,18.8134396 389.312258,20.653543 C390.754752,22.4603582 391.459354,24.3929291 391.459354,26.5825598 C391.461203,28.8461644 390.769546,30.845312 389.327053,32.6872648 Z M498.773447,12.5663346 C490.02787,4.2257652 479.013141,0 466.058442,0 C458.050756,0 450.494311,1.93996836 443.61103,5.77737002 C436.712953,9.61662103 431.196342,15.0000795 427.201745,21.7705505 C423.212697,28.5558164 421.178412,36.0123964 421.178412,43.9498075 C421.178412,55.8762669 425.627948,66.1734488 434.393868,74.5676494 C443.146843,82.9433564 454.028419,87.1931632 466.727907,87.1931632 C479.284995,87.1931632 490.075953,82.9174655 498.812284,74.5103195 C507.563409,66.0828307 512,55.6728384 512,43.5688413 C512,31.3538833 507.544915,20.9235482 498.773447,12.5663346 Z M499.045302,43.5429504 C499.045302,49.4016919 497.612055,54.788849 494.801043,59.5712686 C491.988181,64.3499895 488.010229,68.170747 482.979997,70.9262788 C477.93312,73.6929067 472.361028,75.0984129 466.432011,75.0984129 C457.551431,75.0984129 449.861833,72.0543825 443.579591,66.042145 C437.315842,60.0576477 434.136809,52.6140132 434.136809,43.9128205 C434.136809,38.0281881 435.568206,32.6169895 438.406958,27.8364192 C441.240163,23.0503009 445.240307,19.190707 450.296431,16.3648999 C455.356253,13.5298461 460.782246,12.0947503 466.43571,12.0947503 C472.18349,12.0947503 477.703801,13.5316954 482.837597,16.3685986 C487.969544,19.1999538 491.997428,23.0188619 494.812139,27.708814 C497.623152,32.3932181 499.045302,37.721196 499.045302,43.5429504 Z" fill="#000000"></path>
    </g>
</svg>
