<?xml version="1.0" encoding="utf-8"?>
<!-- Generator: Adobe Illustrator 21.0.2, SVG Export Plug-In . SVG Version: 6.00 Build 0)  -->
<svg version="1.1" id="Layer_1" xmlns="http://www.w3.org/2000/svg" xmlns:xlink="http://www.w3.org/1999/xlink" x="0px" y="0px"
	 viewBox="0 0 470 594" enable-background="new 0 0 470 594" xml:space="preserve">
<rect fill="#F4F2F0" width="470" height="594"/>
<path fill="#999999" d="M204.2,261.8H191v-4.4h13.2V261.8z M239.4,288.2c-7.3,0-13.2,5.9-13.2,13.2c0,7.3,5.9,13.2,13.2,13.2
	c7.3,0,13.2-5.9,13.2-13.2C252.6,294.1,246.7,288.2,239.4,288.2z M287.8,266.2V341H182.2v-74.8h26.1c2.9,0,5.7-1.5,7.3-3.9l6.2-9.3
	H257l6.2,9.3c1.6,2.5,4.4,3.9,7.3,3.9H287.8z M204.2,283.8c0-2.4-2-4.4-4.4-4.4s-4.4,2-4.4,4.4s2,4.4,4.4,4.4
	S204.2,286.2,204.2,283.8z M261.4,301.4c0-12.1-9.9-22-22-22c-12.1,0-22,9.9-22,22s9.9,22,22,22
	C251.5,323.4,261.4,313.5,261.4,301.4z"/>
</svg>
