<?xml version="1.0" encoding="UTF-8"?>
<svg width="256px" height="341px" viewBox="0 0 256 341" version="1.1" xmlns="http://www.w3.org/2000/svg" xmlns:xlink="http://www.w3.org/1999/xlink" preserveAspectRatio="xMidYMid">
	<g fill="#000000">
		<path d="M249.917601,340.580787 L6.09271937,340.580787 C4.67879307,340.580787 3.32679055,340.002832 2.35665134,338.98109 C1.38651213,337.959347 0.87048063,336.586704 0.932404409,335.172777 L12.5431131,91.3478954 C12.6772813,88.5922872 14.9374992,86.4352756 17.703428,86.4352756 L238.306893,86.4352756 C241.062501,86.4352756 243.333039,88.5922872 243.467208,91.3478954 L255.077916,335.172777 C255.13984,336.586704 254.634129,337.959347 253.653669,338.98109 C252.673209,340.002832 251.321207,340.580787 249.917601,340.580787 L249.917601,340.580787 L249.917601,340.580787 Z M11.5007294,330.260157 L244.499271,330.260157 L233.383952,96.7559055 L22.6160479,96.7559055 L11.5007294,330.260157 L11.5007294,330.260157 L11.5007294,330.260157 Z"></path>
		<path d="M183.783005,117.397165 C180.934511,117.397165 178.62269,115.085344 178.62269,112.23685 L178.62269,60.9433197 C178.62269,33.0363364 155.917304,10.3206299 128,10.3206299 C100.082696,10.3206299 77.3773102,33.0363364 77.3773102,60.9433197 L77.3773102,112.23685 C77.3773102,115.085344 75.0654891,117.397165 72.2169953,117.397165 C69.3685014,117.397165 67.0566803,115.085344 67.0566803,112.23685 L67.0566803,60.9433197 C67.0566803,27.3393487 94.396029,0 128,0 C161.603971,0 188.94332,27.3393487 188.94332,60.9433197 L188.94332,112.23685 C188.94332,115.085344 186.641819,117.397165 183.783005,117.397165 L183.783005,117.397165 L183.783005,117.397165 Z"></path>
	</g>
</svg>
