<svg 
 xmlns="http://www.w3.org/2000/svg"
 xmlns:xlink="http://www.w3.org/1999/xlink"
 width="459px" height="281px">
<path fill-rule="evenodd"  fill="rgb(255, 255, 255)"
 d="M373.410,165.245 C374.918,165.581 376.047,166.040 376.797,166.622 C377.547,167.204 377.922,167.995 377.922,168.995 C377.922,170.049 377.494,170.903 376.639,171.555 C375.783,172.208 374.652,172.534 373.246,172.534 C372.309,172.534 371.455,172.403 370.686,172.141 C369.916,171.879 369.250,171.510 368.688,171.034 L368.688,168.479 L369.824,168.479 L370.023,170.284 C370.398,170.659 370.873,170.930 371.447,171.098 C372.021,171.266 372.621,171.350 373.246,171.350 C374.262,171.350 375.062,171.127 375.648,170.682 C376.234,170.237 376.527,169.698 376.527,169.065 C376.527,168.471 376.283,167.952 375.795,167.506 C375.307,167.061 374.426,166.698 373.152,166.417 C371.644,166.088 370.525,165.653 369.795,165.110 C369.064,164.567 368.699,163.807 368.699,162.831 C368.699,161.862 369.109,161.043 369.930,160.376 C370.750,159.708 371.832,159.374 373.176,159.374 C374.105,159.374 374.955,159.516 375.725,159.801 C376.494,160.087 377.121,160.471 377.605,160.956 L377.664,163.522 L376.516,163.522 L376.352,161.729 C376.000,161.362 375.557,161.077 375.021,160.874 C374.486,160.670 373.871,160.569 373.176,160.569 C372.152,160.569 371.385,160.790 370.873,161.231 C370.361,161.672 370.105,162.190 370.105,162.784 C370.105,163.370 370.326,163.854 370.768,164.237 C371.209,164.620 372.090,164.956 373.410,165.245 ZM438.801,128.653 C439.363,134.231 439.539,139.905 439.271,145.630 C440.227,142.856 441.570,139.800 443.286,137.901 C448.593,132.035 458.988,131.268 458.988,131.268 C458.988,131.268 458.514,140.622 452.532,145.395 C446.956,149.849 441.343,151.267 438.859,151.694 C438.503,157.109 437.773,162.439 436.686,167.650 C438.121,165.096 439.967,162.383 441.964,160.825 C448.341,155.872 458.925,156.947 458.925,156.947 C458.925,156.947 456.786,166.260 449.935,169.997 C443.638,173.430 437.836,173.895 435.197,173.902 C433.813,179.140 432.088,184.244 430.083,189.182 C431.992,186.844 434.358,184.382 436.678,183.151 C443.961,179.303 454.407,182.262 454.407,182.262 C454.407,182.262 450.610,191.242 443.059,193.783 C436.091,196.128 430.154,195.551 427.524,195.094 C425.212,200.061 422.620,204.838 419.801,209.393 C422.158,207.344 425.019,205.235 427.616,204.400 C435.617,201.821 445.593,206.644 445.593,206.644 C445.593,206.644 440.181,214.992 432.143,216.208 C424.709,217.332 418.840,215.694 416.285,214.767 C413.298,219.123 410.114,223.239 406.774,227.085 C409.350,225.599 412.283,224.221 414.800,223.873 C423.295,222.701 432.466,229.312 432.466,229.312 C432.466,229.312 425.548,236.744 417.258,236.545 C409.875,236.364 404.404,233.869 401.866,232.445 C398.317,236.109 394.646,239.472 390.908,242.496 C393.559,241.578 396.433,240.867 398.799,240.955 C407.546,241.278 415.589,249.548 415.589,249.548 C415.589,249.548 407.320,255.793 399.022,254.120 C391.768,252.658 386.759,249.275 384.401,247.378 C381.762,249.202 379.103,250.859 376.455,252.320 C374.777,253.321 373.120,254.258 371.476,255.141 C374.408,254.654 377.567,254.403 380.034,254.933 C388.760,256.808 395.380,266.540 395.380,266.540 C395.380,266.540 385.962,271.353 377.919,268.203 C370.788,265.408 366.328,261.035 364.340,258.733 C359.507,260.994 354.921,262.793 350.688,264.219 C353.671,264.256 356.822,264.571 359.163,265.523 C367.603,268.954 372.529,279.910 372.529,279.910 C372.529,279.910 362.212,283.075 354.691,278.482 C348.054,274.437 344.353,269.293 342.747,266.613 C330.669,269.816 323.230,270.285 323.230,270.285 L323.008,268.119 L322.790,265.953 C322.790,265.953 328.600,265.557 338.358,263.348 C338.098,260.172 338.123,253.937 341.048,246.902 C344.429,238.765 354.628,235.261 354.628,235.261 C354.628,235.261 357.094,247.013 352.287,254.753 C350.739,257.248 347.802,259.693 345.046,261.631 C349.451,260.364 354.351,258.683 359.603,256.441 C358.806,253.442 357.736,247.384 359.377,240.042 C361.256,231.617 370.507,226.498 370.507,226.498 C370.507,226.498 374.882,237.421 371.564,245.709 C370.477,248.414 368.006,251.320 365.644,253.675 C368.510,252.281 371.446,250.727 374.450,248.969 C376.107,248.074 377.764,247.097 379.421,246.054 C378.154,243.368 375.994,237.627 376.334,230.099 C376.715,221.646 384.766,215.132 384.766,215.132 C384.766,215.132 390.853,224.932 389.058,233.489 C388.433,236.494 386.297,239.992 384.292,242.773 C388.609,239.686 392.871,236.123 397.000,232.147 C395.326,229.795 392.234,224.596 391.273,217.217 C390.199,209.001 396.857,201.343 396.857,201.343 C396.857,201.343 404.404,209.762 404.127,218.326 C404.031,221.281 402.617,224.934 401.186,227.930 C404.866,224.032 408.390,219.796 411.708,215.273 C409.652,213.226 405.902,208.781 403.771,201.978 C401.333,194.228 406.468,185.703 406.468,185.703 C406.468,185.703 415.178,192.546 416.365,200.860 C416.755,203.582 416.109,207.111 415.295,210.146 C418.185,205.795 420.862,201.211 423.274,196.427 C420.975,194.831 416.524,191.166 413.260,184.875 C409.589,177.810 413.088,168.712 413.088,168.712 C413.088,168.712 422.662,173.832 425.225,181.656 C426.110,184.351 426.035,188.109 425.724,191.277 C427.944,186.356 429.869,181.249 431.455,175.990 C429.022,174.891 423.971,172.111 419.654,166.470 C414.909,160.278 416.738,150.898 416.738,150.898 C416.738,150.898 426.853,154.213 430.654,161.328 C432.051,163.935 432.609,167.894 432.823,171.127 C434.215,165.677 435.239,160.072 435.822,154.349 C433.330,153.728 427.906,151.917 422.716,147.146 C417.078,141.971 417.246,132.612 417.246,132.612 C417.246,132.612 427.570,134.088 432.453,140.312 C434.262,142.612 435.478,146.389 436.233,149.490 C436.787,143.531 436.842,137.607 436.464,131.767 C434.056,131.620 428.363,130.855 422.381,127.030 C416.063,122.995 414.628,113.934 414.628,113.934 C414.628,113.934 424.847,113.605 430.616,118.774 C432.927,120.846 434.866,124.694 436.124,127.674 C435.491,121.391 434.375,115.217 432.827,109.222 C430.448,109.486 424.856,109.694 418.475,107.039 C411.691,104.221 408.767,95.715 408.767,95.715 C408.767,95.715 418.571,93.660 425.015,97.672 C427.516,99.226 429.962,102.445 431.677,105.066 C429.919,99.081 427.746,93.291 425.246,87.762 C422.997,88.422 417.636,89.576 411.028,88.097 C404.001,86.533 399.730,78.824 399.730,78.824 C399.730,78.824 408.843,75.171 415.748,77.946 C418.441,79.023 421.370,81.743 423.471,83.991 C420.690,78.313 417.565,72.942 414.187,67.945 C412.304,68.912 407.194,71.120 400.284,70.807 C393.236,70.493 387.803,63.776 387.803,63.776 C387.803,63.776 395.972,58.704 403.112,60.207 C406.195,60.853 409.900,63.393 412.341,65.295 C408.461,59.849 404.287,54.896 399.949,50.538 C398.493,51.679 393.828,54.915 386.805,55.829 C379.946,56.726 373.556,51.171 373.556,51.171 C373.556,51.171 380.579,44.882 387.724,45.117 C391.118,45.226 395.615,47.407 398.250,48.860 C395.846,46.554 393.400,44.434 390.937,42.517 C388.173,40.217 385.442,38.136 382.761,36.230 C381.507,37.616 377.563,41.481 371.001,43.536 C364.537,45.568 357.422,41.292 357.422,41.292 C357.422,41.292 363.135,34.033 370.066,33.041 C373.309,32.577 377.924,33.871 380.730,34.819 C374.677,30.682 368.933,27.490 363.823,25.037 C363.043,26.330 359.897,31.034 353.591,34.299 C347.697,37.363 340.108,34.446 340.108,34.446 C340.108,34.446 344.387,26.467 350.906,24.330 C354.317,23.216 359.767,23.923 362.439,24.382 C357.883,22.262 353.872,20.729 350.650,19.618 C349.266,20.300 344.668,22.285 340.502,20.855 C334.289,18.723 331.214,14.535 331.214,14.535 C331.214,14.535 337.628,12.079 341.446,12.725 C346.216,13.543 350.118,18.184 350.919,19.192 C353.570,20.027 356.738,21.132 360.304,22.608 C358.005,21.029 353.784,17.859 352.161,14.782 C348.951,8.712 351.410,0.003 351.410,0.003 C351.410,0.003 358.902,3.171 361.021,9.462 C363.316,16.284 362.255,21.925 361.936,23.298 C367.129,25.542 373.061,28.541 379.405,32.567 C377.320,30.474 374.039,26.830 373.019,23.667 C370.863,16.997 374.891,8.684 374.891,8.684 C374.891,8.684 381.855,13.193 382.870,19.893 C383.944,26.974 381.997,32.361 381.376,33.846 C384.770,36.086 388.261,38.604 391.801,41.462 C393.375,42.647 394.940,43.922 396.496,45.266 C394.826,42.752 392.758,39.145 392.355,36.216 C391.374,29.134 396.886,21.491 396.886,21.491 C396.886,21.491 403.087,27.255 402.919,34.167 C402.751,41.024 400.192,45.904 399.139,47.632 C403.498,51.681 407.727,56.338 411.712,61.486 C410.525,58.697 409.229,54.948 409.333,52.081 C409.606,44.790 416.507,38.086 416.507,38.086 C416.507,38.086 421.709,44.979 420.317,51.895 C418.941,58.731 415.517,63.177 414.145,64.737 C417.783,69.759 421.172,75.203 424.218,80.986 C423.505,77.954 422.813,73.817 423.442,70.883 C425.011,63.604 433.125,58.089 433.125,58.089 C433.125,58.089 437.135,65.940 434.509,72.640 C431.896,79.317 427.625,83.184 425.993,84.482 C428.648,89.899 431.002,95.575 432.957,101.470 C432.823,98.398 432.940,94.560 434.001,91.939 C436.867,84.906 446.004,80.802 446.004,80.802 C446.004,80.802 448.647,89.397 444.813,95.667 C441.125,101.713 436.342,104.840 434.350,105.953 C435.961,111.451 437.219,117.119 438.079,122.905 C438.528,120.026 439.304,116.771 440.664,114.605 C444.783,108.046 454.692,105.538 454.692,105.538 C454.692,105.538 455.821,114.647 450.866,120.265 C446.281,125.467 441.159,127.795 438.801,128.653 ZM362.846,161.342 C362.264,160.827 361.449,160.569 360.402,160.569 C359.699,160.569 359.057,160.665 358.475,160.856 C357.893,161.048 357.406,161.307 357.016,161.635 L356.898,163.334 L355.738,163.334 L355.750,160.897 C356.336,160.444 357.037,160.077 357.854,159.795 C358.670,159.514 359.539,159.374 360.461,159.374 C361.859,159.374 362.984,159.729 363.836,160.440 C364.687,161.151 365.113,162.170 365.113,163.499 L365.113,169.733 C365.113,169.991 365.119,170.239 365.131,170.477 C365.143,170.715 365.168,170.948 365.207,171.174 L366.473,171.256 L366.473,172.288 L363.977,172.288 C363.883,171.858 363.816,171.487 363.777,171.174 C363.738,170.862 363.719,170.546 363.719,170.225 C363.250,170.889 362.625,171.440 361.844,171.877 C361.062,172.315 360.184,172.534 359.207,172.534 C357.965,172.534 357.004,172.213 356.324,171.573 C355.645,170.932 355.305,170.065 355.305,168.971 C355.305,167.799 355.809,166.870 356.816,166.182 C357.824,165.495 359.191,165.151 360.918,165.151 L363.719,165.151 L363.719,163.475 C363.719,162.569 363.428,161.858 362.846,161.342 ZM360.895,166.229 C359.621,166.229 358.604,166.493 357.842,167.020 C357.080,167.547 356.699,168.214 356.699,169.018 C356.699,169.698 356.935,170.247 357.408,170.665 C357.881,171.083 358.531,171.292 359.359,171.292 C360.375,171.292 361.270,171.057 362.043,170.588 C362.816,170.120 363.375,169.514 363.719,168.772 L363.719,166.229 L360.895,166.229 ZM343.820,170.758 C342.875,169.575 342.402,168.053 342.402,166.194 L342.402,165.702 C342.402,163.858 342.875,162.342 343.820,161.155 C344.766,159.967 346.094,159.374 347.805,159.374 C348.781,159.374 349.676,159.557 350.488,159.924 C351.301,160.292 351.961,160.792 352.469,161.424 L352.527,164.190 L351.332,164.190 L351.109,161.940 C350.734,161.518 350.267,161.184 349.709,160.938 C349.150,160.692 348.516,160.569 347.805,160.569 C346.445,160.569 345.439,161.055 344.787,162.028 C344.135,163.001 343.809,164.225 343.809,165.702 L343.809,166.194 C343.809,167.694 344.133,168.928 344.781,169.897 C345.430,170.866 346.441,171.350 347.816,171.350 C348.746,171.350 349.566,171.085 350.277,170.553 C350.988,170.022 351.344,169.284 351.344,168.338 L352.586,168.338 L352.609,168.409 C352.648,169.581 352.182,170.561 351.209,171.350 C350.326,172.067 349.305,172.441 348.160,172.507 L348.051,173.143 C348.668,173.213 349.166,173.403 349.545,173.711 C349.924,174.020 350.113,174.498 350.113,175.147 C350.113,175.858 349.805,176.426 349.188,176.852 C348.570,177.278 347.688,177.491 346.539,177.491 L346.457,176.577 C347.152,176.577 347.740,176.457 348.221,176.219 C348.701,175.981 348.941,175.631 348.941,175.170 C348.941,174.725 348.781,174.415 348.461,174.239 C348.141,174.063 347.574,173.944 346.762,173.881 L347.074,172.466 C345.717,172.313 344.621,171.761 343.820,170.758 ZM350.387,69.325 C354.773,73.540 357.000,78.801 357.000,84.962 C357.000,91.067 354.782,96.317 350.406,100.568 C346.038,104.808 340.643,106.965 334.364,106.965 C328.014,106.965 322.573,104.821 318.197,100.597 C313.814,96.363 311.589,91.169 311.589,85.154 C311.589,81.151 312.606,77.390 314.601,73.967 C316.598,70.553 319.357,67.837 322.806,65.901 C326.247,63.965 330.025,62.987 334.029,62.987 C340.507,62.987 346.014,65.118 350.387,69.325 ZM320.204,77.027 C318.784,79.438 318.068,82.167 318.068,85.135 C318.068,89.524 319.658,93.278 322.790,96.297 C325.931,99.329 329.776,100.865 334.216,100.865 C337.181,100.865 339.967,100.156 342.490,98.760 C345.005,97.370 346.994,95.443 348.400,93.033 C349.806,90.621 350.523,87.904 350.523,84.949 C350.523,82.012 349.812,79.325 348.406,76.962 C346.999,74.597 344.985,72.671 342.419,71.243 C339.852,69.812 337.092,69.087 334.218,69.087 C331.391,69.087 328.678,69.811 326.148,71.241 C323.620,72.666 321.620,74.613 320.204,77.027 ZM296.957,106.969 L283.222,88.881 L279.177,88.881 L279.177,106.968 L272.561,106.968 L272.561,64.116 L283.203,64.116 C288.775,64.116 290.726,64.301 292.762,64.693 C295.846,65.281 298.398,66.566 300.343,68.514 C302.328,70.499 303.334,72.973 303.334,75.868 C303.334,78.145 302.691,81.458 301.275,83.357 C299.918,85.174 297.970,86.563 295.482,87.480 C294.455,87.858 292.715,88.269 291.565,88.524 L305.637,106.969 L296.957,106.969 ZM292.610,81.524 C293.915,81.093 294.942,80.403 295.663,79.473 C296.385,78.544 296.731,77.536 296.730,76.394 C296.730,75.290 296.377,74.315 295.656,73.404 C294.914,72.476 293.966,71.826 292.751,71.422 C291.487,71.003 289.319,70.789 286.297,70.789 L279.177,70.789 L279.177,82.159 L286.117,82.206 C289.049,82.206 291.236,81.979 292.610,81.524 ZM250.776,94.538 L230.917,94.538 L224.472,106.967 L217.098,106.967 L239.212,64.116 L242.638,64.116 L265.072,106.967 L257.307,106.967 L250.776,94.538 ZM240.927,75.255 L234.379,87.879 L247.444,87.879 L240.927,75.255 ZM199.179,80.331 L184.668,106.969 L181.802,106.969 L167.396,80.278 L163.223,106.969 L156.525,106.969 L163.208,64.116 L166.190,64.116 L183.224,95.683 L200.374,64.116 L203.456,64.116 L209.909,106.969 L203.212,106.969 L199.179,80.331 ZM134.680,94.538 L114.820,94.538 L108.375,106.967 L101.000,106.967 L123.115,64.116 L126.540,64.116 L148.975,106.967 L141.210,106.967 L134.680,94.538 ZM124.829,75.255 L118.280,87.879 L131.346,87.879 L124.829,75.255 ZM83.500,172.288 L79.305,172.288 L79.305,171.256 L80.559,171.163 L86.617,155.225 L87.941,155.225 L93.941,171.163 L95.219,171.256 L95.219,172.288 L91.012,172.288 L91.012,171.256 L92.500,171.139 L91.094,167.319 L83.430,167.319 L82.012,171.139 L83.500,171.256 L83.500,172.288 ZM90.637,166.065 L87.320,157.042 L87.250,157.042 L83.898,166.065 L90.637,166.065 ZM96.918,155.049 L96.918,154.006 L100.223,154.006 L100.223,171.104 L102.133,171.256 L102.133,172.288 L96.918,172.288 L96.918,171.256 L98.828,171.104 L98.828,155.202 L96.918,155.049 ZM111.461,172.012 C110.805,172.360 110.035,172.534 109.152,172.534 C107.629,172.534 106.437,171.967 105.578,170.834 C104.719,169.702 104.289,168.190 104.289,166.299 L104.289,166.053 C104.289,164.030 104.721,162.411 105.584,161.196 C106.447,159.981 107.644,159.374 109.176,159.374 C110.074,159.374 110.853,159.571 111.514,159.965 C112.174,160.360 112.719,160.917 113.148,161.635 L113.312,159.608 L114.496,159.608 L114.496,172.124 C114.496,173.756 114.055,175.045 113.172,175.991 C112.289,176.936 111.058,177.409 109.480,177.409 C108.871,177.409 108.221,177.334 107.529,177.186 C106.838,177.038 106.234,176.834 105.719,176.577 L106.094,175.393 C106.602,175.635 107.135,175.823 107.693,175.956 C108.252,176.088 108.840,176.155 109.457,176.155 C110.660,176.155 111.566,175.799 112.176,175.088 C112.785,174.377 113.090,173.389 113.090,172.124 L113.090,170.518 C112.660,171.167 112.117,171.665 111.461,172.012 ZM113.090,163.100 C112.777,162.358 112.328,161.754 111.742,161.290 C111.156,160.825 110.387,160.592 109.434,160.592 C108.199,160.592 107.267,161.100 106.639,162.116 C106.010,163.131 105.695,164.444 105.695,166.053 L105.695,166.299 C105.695,167.823 106.006,169.040 106.627,169.950 C107.248,170.860 108.176,171.315 109.410,171.315 C110.324,171.315 111.084,171.108 111.689,170.694 C112.295,170.280 112.762,169.709 113.090,168.983 L113.090,163.100 ZM118.482,20.855 C114.321,22.285 109.723,20.300 108.334,19.618 C105.112,20.729 101.106,22.262 96.550,24.382 C99.222,23.923 104.672,23.216 108.078,24.330 C114.598,26.467 118.877,34.446 118.877,34.446 C118.877,34.446 111.288,37.363 105.393,34.299 C99.088,31.034 95.942,26.330 95.161,25.037 C90.051,27.490 84.312,30.682 78.254,34.817 C81.061,33.869 85.680,32.577 88.914,33.041 C95.849,34.033 101.563,41.292 101.563,41.292 C101.563,41.292 94.448,45.568 87.987,43.536 C81.426,41.481 77.482,37.616 76.228,36.230 C73.543,38.136 70.812,40.217 68.052,42.517 C65.585,44.434 63.139,46.554 60.739,48.860 C63.374,47.405 67.871,45.226 71.257,45.117 C78.405,44.882 85.432,51.171 85.432,51.171 C85.432,51.171 79.039,56.726 72.180,55.829 C65.157,54.915 60.492,51.679 59.036,50.540 C54.698,54.896 50.524,59.846 46.643,65.295 C49.089,63.390 52.793,60.853 55.873,60.207 C63.013,58.704 71.181,63.776 71.181,63.776 C71.181,63.776 65.748,70.493 58.700,70.807 C51.791,71.120 46.685,68.912 44.797,67.945 C41.420,72.942 38.295,78.311 35.513,83.987 C37.615,81.743 40.543,79.023 43.232,77.946 C50.146,75.171 59.254,78.824 59.254,78.824 C59.254,78.824 54.988,86.533 47.956,88.097 C41.349,89.576 35.991,88.422 33.739,87.762 C31.238,93.291 29.069,99.079 27.307,105.062 C29.023,102.441 31.469,99.224 33.965,97.672 C40.413,93.660 50.222,95.715 50.222,95.715 C50.222,95.715 47.293,104.221 40.510,107.039 C34.129,109.694 28.537,109.486 26.158,109.222 C24.610,115.217 23.494,121.391 22.860,127.674 C24.119,124.692 26.057,120.846 28.369,118.774 C34.137,113.605 44.357,113.934 44.357,113.934 C44.357,113.934 42.922,122.995 36.604,127.030 C30.622,130.855 24.933,131.620 22.525,131.767 C22.143,137.607 22.198,143.531 22.751,149.486 C23.506,146.389 24.723,142.612 26.536,140.312 C31.415,134.088 41.739,132.612 41.739,132.612 C41.739,132.612 41.907,141.971 36.268,147.146 C31.079,151.917 25.654,153.728 23.163,154.349 C23.746,160.072 24.769,165.677 26.166,171.127 C26.380,167.894 26.934,163.935 28.335,161.328 C32.136,154.213 42.251,150.898 42.251,150.898 C42.251,150.898 44.076,160.278 39.331,166.470 C35.014,172.111 29.963,174.891 27.530,175.990 C29.116,181.249 31.041,186.356 33.260,191.277 C32.950,188.109 32.879,184.351 33.760,181.656 C36.323,173.832 45.897,168.712 45.897,168.712 C45.897,168.712 49.395,177.810 45.725,184.875 C42.465,191.166 38.009,194.831 35.711,196.427 C38.127,201.211 40.804,205.795 43.690,210.146 C42.876,207.111 42.230,203.582 42.620,200.860 C43.807,192.546 52.521,185.703 52.521,185.703 C52.521,185.703 57.652,194.228 55.214,201.978 C53.083,208.781 49.332,213.226 47.281,215.277 C50.595,219.796 54.119,224.036 57.798,227.932 C56.368,224.938 54.954,221.281 54.857,218.326 C54.585,209.762 62.124,201.343 62.124,201.343 C62.124,201.343 68.790,209.001 67.712,217.217 C66.755,224.596 63.659,229.795 61.985,232.147 C66.113,236.123 70.380,239.686 74.693,242.775 C72.687,239.992 70.556,236.494 69.927,233.489 C68.131,224.932 74.219,215.132 74.219,215.132 C74.219,215.132 82.273,221.646 82.651,230.099 C82.991,237.627 80.834,243.368 79.563,246.054 C81.220,247.097 82.878,248.074 84.530,248.969 C87.534,250.727 90.475,252.281 93.340,253.675 C90.978,251.320 88.507,248.414 87.421,245.709 C84.103,237.421 88.478,226.498 88.478,226.498 C88.478,226.498 97.729,231.617 99.608,240.042 C101.248,247.384 100.179,253.442 99.381,256.441 C104.634,258.683 109.534,260.364 113.939,261.631 C111.183,259.693 108.242,257.248 106.694,254.753 C101.890,247.013 104.357,235.261 104.357,235.261 C104.357,235.261 114.556,238.765 117.937,246.902 C120.865,253.937 120.886,260.172 120.626,263.348 C130.389,265.557 136.199,265.953 136.199,265.953 L135.977,268.119 L135.758,270.285 C135.758,270.285 128.316,269.816 116.238,266.613 C114.631,269.293 110.931,274.437 104.294,278.482 C96.772,283.075 86.456,279.910 86.456,279.910 C86.456,279.910 91.381,268.954 99.822,265.523 C102.163,264.571 105.314,264.256 108.296,264.219 C104.063,262.793 99.478,260.994 94.645,258.733 C92.657,261.035 88.197,265.408 81.065,268.203 C73.023,271.353 63.605,266.540 63.605,266.540 C63.605,266.540 70.225,256.808 78.951,254.933 C81.418,254.403 84.581,254.654 87.505,255.141 C85.865,254.258 84.207,253.321 82.529,252.320 C79.878,250.859 77.227,249.202 74.579,247.378 C72.222,249.280 67.217,252.658 59.963,254.120 C51.665,255.793 43.396,249.548 43.396,249.548 C43.396,249.548 51.443,241.278 60.185,240.955 C62.552,240.867 65.425,241.578 68.077,242.496 C64.339,239.472 60.668,236.109 57.123,232.445 C54.581,233.869 49.110,236.364 41.726,236.545 C33.437,236.744 26.519,229.312 26.519,229.312 C26.519,229.312 35.689,222.701 44.185,223.873 C46.702,224.221 49.634,225.599 52.210,227.085 C48.871,223.239 45.687,219.123 42.700,214.767 C40.145,215.694 34.271,217.332 26.842,216.208 C18.808,214.992 13.396,206.644 13.396,206.644 C13.396,206.644 23.372,201.821 31.368,204.400 C33.961,205.235 36.826,207.342 39.184,209.393 C36.365,204.838 33.768,200.061 31.461,195.094 C28.830,195.551 22.894,196.128 15.922,193.783 C8.374,191.242 4.578,182.262 4.578,182.262 C4.578,182.262 15.020,179.303 22.307,183.151 C24.627,184.382 26.993,186.844 28.901,189.182 C26.892,184.244 25.172,179.140 23.788,173.902 C21.149,173.895 15.347,173.430 9.054,169.997 C2.199,166.260 0.059,156.947 0.059,156.947 C0.059,156.947 10.644,155.872 17.021,160.825 C19.018,162.383 20.864,165.096 22.298,167.650 C21.216,162.439 20.482,157.109 20.125,151.694 C17.642,151.265 12.024,149.849 6.449,145.395 C0.470,140.622 -0.004,131.268 -0.004,131.268 C-0.004,131.268 10.392,132.035 15.699,137.901 C17.415,139.796 18.758,142.856 19.714,145.630 C19.450,139.903 19.622,134.231 20.180,128.653 C17.826,127.795 12.704,125.467 8.118,120.265 C3.164,114.647 4.292,105.538 4.292,105.538 C4.292,105.538 14.201,108.046 18.321,114.605 C19.681,116.769 20.457,120.024 20.905,122.901 C21.766,117.117 23.024,111.451 24.639,105.953 C22.642,104.840 17.860,101.713 14.172,95.667 C10.342,89.397 12.981,80.802 12.981,80.802 C12.981,80.802 22.118,84.906 24.979,91.939 C26.045,94.560 26.162,98.398 26.028,101.470 C27.983,95.575 30.336,89.899 32.992,84.482 C31.360,83.184 27.089,79.317 24.476,72.640 C21.849,65.940 25.860,58.089 25.860,58.089 C25.860,58.089 33.978,63.604 35.543,70.883 C36.176,73.817 35.484,77.950 34.766,80.984 C37.812,75.199 41.202,69.759 44.839,64.737 C43.467,63.177 40.044,58.731 38.668,51.895 C37.271,44.979 42.477,38.086 42.477,38.086 C42.477,38.086 49.378,44.790 49.651,52.081 C49.756,54.948 48.460,58.697 47.277,61.486 C51.254,56.338 55.487,51.681 59.846,47.632 C58.793,45.904 56.234,41.024 56.066,34.167 C55.898,27.255 62.103,21.491 62.103,21.491 C62.103,21.491 67.615,29.134 66.634,36.216 C66.227,39.145 64.158,42.752 62.489,45.266 C64.045,43.922 65.610,42.647 67.183,41.462 C70.724,38.604 74.214,36.086 77.608,33.846 C76.987,32.359 75.045,26.974 76.119,19.893 C77.134,13.193 84.098,8.684 84.098,8.684 C84.098,8.684 88.122,16.997 85.965,23.667 C84.950,26.830 81.665,30.474 79.584,32.563 C85.923,28.541 91.860,25.542 97.049,23.298 C96.730,21.925 95.669,16.284 97.964,9.462 C100.082,3.171 107.575,0.003 107.575,0.003 C107.575,0.003 110.038,8.712 106.824,14.782 C105.196,17.861 100.980,21.031 98.681,22.608 C102.247,21.132 105.414,20.027 108.066,19.192 C108.867,18.184 112.769,13.543 117.543,12.725 C121.356,12.079 127.771,14.535 127.771,14.535 C127.771,14.535 124.696,18.723 118.482,20.855 ZM123.386,223.295 C123.386,219.743 126.746,217.631 129.530,217.631 C132.026,217.631 134.427,218.591 136.779,219.791 L137.307,218.879 C139.947,214.078 143.451,201.597 145.420,200.349 C147.724,198.813 150.172,198.381 151.276,198.381 C151.948,198.381 152.092,198.669 152.092,199.053 C152.092,199.437 150.460,200.925 149.308,203.469 C148.732,204.814 145.516,214.702 142.347,220.319 C141.963,221.039 141.579,221.663 141.195,222.287 C143.836,223.775 146.428,225.023 149.068,225.023 C152.620,225.023 155.789,222.431 155.789,218.399 C155.789,215.278 154.156,213.358 152.812,213.214 C152.812,213.214 151.420,213.790 150.364,213.790 C148.972,213.790 147.820,212.974 147.820,211.726 C147.820,210.334 148.972,209.566 150.268,209.566 C151.612,209.566 153.244,210.094 153.244,210.094 C153.244,210.094 157.757,207.742 157.757,202.989 C157.757,198.621 153.532,196.269 149.212,196.269 C140.331,196.269 135.195,201.213 135.195,207.022 C135.195,209.950 137.547,210.862 137.547,211.486 C137.547,212.158 137.211,212.398 136.539,212.398 C133.995,212.398 128.906,210.046 128.906,206.254 C128.906,199.101 139.083,193.533 149.308,193.533 C156.605,193.533 163.325,196.653 163.325,202.845 C163.325,208.462 156.701,211.630 156.365,211.726 C156.509,211.774 161.837,213.934 161.837,219.647 C161.837,226.079 155.885,228.768 150.892,228.768 C146.572,228.768 142.635,226.943 139.131,225.071 C136.971,227.520 134.523,228.768 131.066,228.768 C127.130,228.768 123.386,226.655 123.386,223.295 ZM134.907,222.815 C133.083,221.903 131.402,221.279 129.866,221.279 C128.378,221.279 127.322,222.383 127.322,223.679 C127.322,224.975 128.618,225.839 130.154,225.839 C132.122,225.839 133.467,224.831 134.907,222.815 ZM159.063,172.534 C157.820,172.534 156.859,172.213 156.180,171.573 C155.500,170.932 155.160,170.065 155.160,168.971 C155.160,167.799 155.664,166.870 156.672,166.182 C157.680,165.495 159.047,165.151 160.773,165.151 L163.574,165.151 L163.574,163.475 C163.574,162.569 163.283,161.858 162.701,161.342 C162.119,160.827 161.305,160.569 160.258,160.569 C159.555,160.569 158.912,160.665 158.330,160.856 C157.748,161.048 157.262,161.307 156.871,161.635 L156.754,163.334 L155.594,163.334 L155.605,160.897 C156.191,160.444 156.893,160.077 157.709,159.795 C158.525,159.514 159.394,159.374 160.316,159.374 C161.715,159.374 162.840,159.729 163.691,160.440 C164.543,161.151 164.969,162.170 164.969,163.499 L164.969,169.733 C164.969,169.991 164.975,170.239 164.986,170.477 C164.998,170.715 165.023,170.948 165.062,171.174 L166.328,171.256 L166.328,172.288 L163.832,172.288 C163.738,171.858 163.672,171.487 163.633,171.174 C163.594,170.862 163.574,170.546 163.574,170.225 C163.105,170.889 162.480,171.440 161.699,171.877 C160.918,172.315 160.039,172.534 159.063,172.534 ZM163.574,168.772 L163.574,166.229 L160.750,166.229 C159.477,166.229 158.459,166.493 157.697,167.020 C156.936,167.547 156.555,168.214 156.555,169.018 C156.555,169.698 156.791,170.247 157.264,170.665 C157.736,171.083 158.387,171.292 159.215,171.292 C160.230,171.292 161.125,171.057 161.898,170.588 C162.672,170.120 163.230,169.514 163.574,168.772 ZM173.978,209.518 C176.906,209.518 179.259,212.014 179.259,214.558 C179.259,216.863 177.483,221.663 171.434,221.663 C170.906,221.663 169.610,221.375 169.610,221.375 C169.610,224.207 171.530,225.839 173.834,225.839 C176.771,225.839 178.984,224.012 180.193,222.708 C180.150,222.482 180.121,222.260 180.121,222.047 C180.121,219.263 184.729,218.207 184.729,218.207 C184.729,218.207 185.737,216.623 187.946,213.214 C190.202,209.854 191.738,208.702 192.938,208.702 C193.946,208.702 195.290,209.998 195.290,210.478 C195.290,211.150 194.138,212.350 194.138,213.646 C194.138,217.439 196.010,219.023 196.010,221.951 C196.010,224.399 194.906,225.599 194.906,225.599 C197.725,224.850 199.640,222.910 200.438,221.961 C200.723,219.079 201.975,214.330 203.449,209.950 L202.153,209.950 C201.913,209.950 201.769,209.806 201.769,209.518 C201.769,209.038 202.537,207.838 203.209,207.838 L204.169,207.838 C205.129,205.246 206.089,202.941 206.953,201.405 C207.193,200.877 207.674,200.493 208.250,200.493 C209.690,200.493 211.994,202.509 211.994,203.373 C211.994,203.805 211.274,205.486 210.410,207.838 L213.626,207.838 C213.866,207.838 214.010,207.982 214.010,208.270 C214.010,208.750 213.194,209.950 212.570,209.950 L209.594,209.950 C208.010,214.222 206.233,219.599 206.233,223.055 C206.233,224.495 207.385,225.551 208.778,225.551 C211.370,225.551 213.914,221.423 213.914,221.423 C213.914,221.423 214.298,220.751 214.874,220.751 C215.402,220.751 215.882,221.183 215.882,221.711 C215.882,222.143 215.450,222.863 215.450,222.863 C215.450,222.863 211.946,228.768 207.193,228.768 C204.720,228.768 201.768,227.180 200.761,224.769 C198.821,226.604 195.041,229.104 188.810,229.104 C185.516,229.104 182.617,227.074 181.146,224.885 C179.475,226.595 176.487,228.768 172.058,228.768 C167.210,228.768 163.705,225.791 163.705,221.711 C163.705,214.366 169.802,209.518 173.978,209.518 ZM176.090,212.926 C176.090,212.302 175.754,211.966 175.226,211.966 C172.586,211.966 169.850,216.911 169.850,219.407 C173.354,219.407 176.090,214.942 176.090,212.926 ZM187.658,226.991 C189.146,226.991 190.346,225.119 190.346,222.959 C190.346,220.511 188.858,217.439 188.858,215.471 C188.858,215.471 185.305,220.895 185.305,221.519 C185.305,224.303 185.930,226.991 187.658,226.991 ZM213.883,171.034 L213.883,168.479 L215.020,168.479 L215.219,170.284 C215.594,170.659 216.068,170.930 216.643,171.098 C217.217,171.266 217.816,171.350 218.441,171.350 C219.457,171.350 220.258,171.127 220.844,170.682 C221.430,170.237 221.723,169.698 221.723,169.065 C221.723,168.471 221.478,167.952 220.990,167.506 C220.502,167.061 219.621,166.698 218.348,166.417 C216.840,166.088 215.721,165.653 214.990,165.110 C214.260,164.567 213.895,163.807 213.895,162.831 C213.895,161.862 214.305,161.043 215.125,160.376 C215.945,159.708 217.027,159.374 218.371,159.374 C219.301,159.374 220.150,159.516 220.920,159.801 C221.689,160.087 222.316,160.471 222.801,160.956 L222.859,163.522 L221.711,163.522 L221.547,161.729 C221.195,161.362 220.752,161.077 220.217,160.874 C219.682,160.670 219.066,160.569 218.371,160.569 C217.348,160.569 216.580,160.790 216.068,161.231 C215.557,161.672 215.301,162.190 215.301,162.784 C215.301,163.370 215.521,163.854 215.963,164.237 C216.404,164.620 217.285,164.956 218.605,165.245 C220.113,165.581 221.242,166.040 221.992,166.622 C222.742,167.204 223.117,167.995 223.117,168.995 C223.117,170.049 222.689,170.903 221.834,171.555 C220.979,172.208 219.848,172.534 218.441,172.534 C217.504,172.534 216.650,172.403 215.881,172.141 C215.111,171.879 214.445,171.510 213.883,171.034 ZM234.649,212.350 C235.225,212.350 235.465,212.686 235.465,213.166 C235.465,213.598 235.129,213.838 234.457,214.318 C232.921,215.567 231.241,216.863 231.241,219.695 C231.241,222.239 233.497,225.311 236.953,225.311 C240.553,225.311 243.050,223.055 243.050,219.407 C243.050,214.606 236.185,209.230 236.185,203.037 C236.185,197.037 242.954,193.533 248.714,193.533 C252.266,193.533 255.387,194.733 255.387,197.469 C255.387,200.877 250.346,204.526 248.618,204.526 C248.186,204.526 247.802,204.142 247.802,203.805 C247.802,203.469 247.946,203.277 248.426,202.653 C249.290,201.549 250.442,199.869 250.442,198.333 C250.442,197.085 249.482,196.365 248.090,196.365 C244.730,196.365 242.330,198.957 242.330,201.789 C242.330,207.742 249.338,213.022 249.338,218.735 C249.338,224.447 243.386,228.768 237.673,228.768 C229.464,228.768 224.808,223.823 224.808,219.791 C224.808,215.759 231.577,212.350 234.649,212.350 ZM315.086,160.651 L315.086,159.608 L318.168,159.608 L318.344,161.577 C318.773,160.874 319.322,160.331 319.990,159.948 C320.658,159.565 321.441,159.374 322.340,159.374 C323.863,159.374 325.055,159.981 325.914,161.196 C326.773,162.411 327.203,164.030 327.203,166.053 L327.203,166.299 C327.203,168.198 326.773,169.712 325.914,170.840 C325.055,171.969 323.871,172.534 322.363,172.534 C321.473,172.534 320.693,172.364 320.025,172.024 C319.357,171.684 318.813,171.202 318.391,170.577 L318.391,175.967 L320.301,176.120 L320.301,177.163 L315.086,177.163 L315.086,176.120 L316.996,175.967 L316.996,160.803 L315.086,160.651 ZM318.391,169.112 C318.711,169.807 319.174,170.354 319.779,170.752 C320.385,171.151 321.141,171.350 322.047,171.350 C323.273,171.350 324.205,170.889 324.842,169.967 C325.478,169.046 325.797,167.823 325.797,166.299 L325.797,166.053 C325.797,164.444 325.476,163.131 324.836,162.116 C324.195,161.100 323.258,160.592 322.023,160.592 C321.078,160.592 320.310,160.817 319.721,161.266 C319.131,161.715 318.687,162.299 318.391,163.018 L318.391,169.112 ZM302.559,165.245 C304.066,165.581 305.195,166.040 305.945,166.622 C306.695,167.204 307.070,167.995 307.070,168.995 C307.070,170.049 306.643,170.903 305.787,171.555 C304.932,172.208 303.801,172.534 302.395,172.534 C301.457,172.534 300.603,172.403 299.834,172.141 C299.064,171.879 298.398,171.510 297.836,171.034 L297.836,168.479 L298.973,168.479 L299.172,170.284 C299.547,170.659 300.021,170.930 300.596,171.098 C301.170,171.266 301.769,171.350 302.395,171.350 C303.410,171.350 304.211,171.127 304.797,170.682 C305.383,170.237 305.676,169.698 305.676,169.065 C305.676,168.471 305.432,167.952 304.943,167.506 C304.455,167.061 303.574,166.698 302.301,166.417 C300.793,166.088 299.674,165.653 298.943,165.110 C298.213,164.567 297.848,163.807 297.848,162.831 C297.848,161.862 298.258,161.043 299.078,160.376 C299.898,159.708 300.980,159.374 302.324,159.374 C303.254,159.374 304.103,159.516 304.873,159.801 C305.642,160.087 306.269,160.471 306.754,160.956 L306.813,163.522 L305.664,163.522 L305.500,161.729 C305.148,161.362 304.705,161.077 304.170,160.874 C303.635,160.670 303.019,160.569 302.324,160.569 C301.301,160.569 300.533,160.790 300.021,161.231 C299.510,161.672 299.254,162.190 299.254,162.784 C299.254,163.370 299.475,163.854 299.916,164.237 C300.357,164.620 301.238,164.956 302.559,165.245 ZM291.994,161.342 C291.412,160.827 290.598,160.569 289.551,160.569 C288.848,160.569 288.205,160.665 287.623,160.856 C287.041,161.048 286.555,161.307 286.164,161.635 L286.047,163.334 L284.887,163.334 L284.898,160.897 C285.484,160.444 286.185,160.077 287.002,159.795 C287.818,159.514 288.687,159.374 289.609,159.374 C291.008,159.374 292.133,159.729 292.984,160.440 C293.836,161.151 294.262,162.170 294.262,163.499 L294.262,169.733 C294.262,169.991 294.268,170.239 294.279,170.477 C294.291,170.715 294.316,170.948 294.355,171.174 L295.621,171.256 L295.621,172.288 L293.125,172.288 C293.031,171.858 292.965,171.487 292.926,171.174 C292.887,170.862 292.867,170.546 292.867,170.225 C292.398,170.889 291.773,171.440 290.992,171.877 C290.211,172.315 289.332,172.534 288.355,172.534 C287.113,172.534 286.152,172.213 285.473,171.573 C284.793,170.932 284.453,170.065 284.453,168.971 C284.453,167.799 284.957,166.870 285.965,166.182 C286.973,165.495 288.340,165.151 290.066,165.151 L292.867,165.151 L292.867,163.475 C292.867,162.569 292.576,161.858 291.994,161.342 ZM290.043,166.229 C288.769,166.229 287.752,166.493 286.990,167.020 C286.229,167.547 285.848,168.214 285.848,169.018 C285.848,169.698 286.084,170.247 286.557,170.665 C287.029,171.083 287.680,171.292 288.508,171.292 C289.523,171.292 290.418,171.057 291.191,170.588 C291.965,170.120 292.523,169.514 292.867,168.772 L292.867,166.229 L290.043,166.229 ZM277.305,165.245 C278.812,165.581 279.941,166.040 280.691,166.622 C281.441,167.204 281.816,167.995 281.816,168.995 C281.816,170.049 281.389,170.903 280.533,171.555 C279.678,172.208 278.547,172.534 277.141,172.534 C276.203,172.534 275.349,172.403 274.580,172.141 C273.810,171.879 273.145,171.510 272.582,171.034 L272.582,168.479 L273.719,168.479 L273.918,170.284 C274.293,170.659 274.768,170.930 275.342,171.098 C275.916,171.266 276.516,171.350 277.141,171.350 C278.156,171.350 278.957,171.127 279.543,170.682 C280.129,170.237 280.422,169.698 280.422,169.065 C280.422,168.471 280.178,167.952 279.689,167.506 C279.201,167.061 278.320,166.698 277.047,166.417 C275.539,166.088 274.420,165.653 273.689,165.110 C272.959,164.567 272.594,163.807 272.594,162.831 C272.594,161.862 273.004,161.043 273.824,160.376 C274.645,159.708 275.727,159.374 277.070,159.374 C278.000,159.374 278.850,159.516 279.619,159.801 C280.389,160.087 281.016,160.471 281.500,160.956 L281.559,163.522 L280.410,163.522 L280.246,161.729 C279.895,161.362 279.451,161.077 278.916,160.874 C278.381,160.670 277.766,160.569 277.070,160.569 C276.047,160.569 275.279,160.790 274.768,161.231 C274.256,161.672 274.000,162.190 274.000,162.784 C274.000,163.370 274.221,163.854 274.662,164.237 C275.103,164.620 275.984,164.956 277.305,165.245 ZM265.293,165.245 C266.801,165.581 267.930,166.040 268.680,166.622 C269.430,167.204 269.805,167.995 269.805,168.995 C269.805,170.049 269.377,170.903 268.521,171.555 C267.666,172.208 266.535,172.534 265.129,172.534 C264.191,172.534 263.338,172.403 262.568,172.141 C261.799,171.879 261.133,171.510 260.570,171.034 L260.570,168.479 L261.707,168.479 L261.906,170.284 C262.281,170.659 262.756,170.930 263.330,171.098 C263.904,171.266 264.504,171.350 265.129,171.350 C266.144,171.350 266.945,171.127 267.531,170.682 C268.117,170.237 268.410,169.698 268.410,169.065 C268.410,168.471 268.166,167.952 267.678,167.506 C267.189,167.061 266.308,166.698 265.035,166.417 C263.527,166.088 262.408,165.653 261.678,165.110 C260.947,164.567 260.582,163.807 260.582,162.831 C260.582,161.862 260.992,161.043 261.813,160.376 C262.633,159.708 263.715,159.374 265.059,159.374 C265.988,159.374 266.838,159.516 267.607,159.801 C268.377,160.087 269.004,160.471 269.488,160.956 L269.547,163.522 L268.398,163.522 L268.234,161.729 C267.883,161.362 267.439,161.077 266.904,160.874 C266.369,160.670 265.754,160.569 265.059,160.569 C264.035,160.569 263.267,160.790 262.756,161.231 C262.244,161.672 261.988,162.190 261.988,162.784 C261.988,163.370 262.209,163.854 262.650,164.237 C263.092,164.620 263.973,164.956 265.293,165.245 ZM252.449,159.374 C254.144,159.374 255.504,159.971 256.527,161.167 C257.551,162.362 258.062,163.893 258.062,165.760 L258.062,166.147 C258.062,168.022 257.553,169.555 256.533,170.747 C255.514,171.938 254.160,172.534 252.473,172.534 C250.769,172.534 249.406,171.938 248.383,170.747 C247.359,169.555 246.848,168.022 246.848,166.147 L246.848,165.760 C246.848,163.893 247.359,162.362 248.383,161.167 C249.406,159.971 250.762,159.374 252.449,159.374 ZM248.254,165.760 L248.254,166.147 C248.254,167.616 248.625,168.850 249.367,169.850 C250.109,170.850 251.144,171.350 252.473,171.350 C253.777,171.350 254.801,170.850 255.543,169.850 C256.285,168.850 256.656,167.616 256.656,166.147 L256.656,165.760 C256.656,164.315 256.283,163.088 255.537,162.081 C254.791,161.073 253.762,160.569 252.449,160.569 C251.137,160.569 250.109,161.073 249.367,162.081 C248.625,163.088 248.254,164.315 248.254,165.760 ZM231.250,160.651 L231.250,159.608 L234.402,159.608 L234.531,161.823 C234.937,161.042 235.486,160.438 236.178,160.012 C236.869,159.587 237.687,159.374 238.633,159.374 C240.008,159.374 241.055,159.794 241.773,160.633 C242.492,161.473 242.852,162.784 242.852,164.565 L242.852,171.104 L244.762,171.256 L244.762,172.288 L239.535,172.288 L239.535,171.256 L241.445,171.104 L241.445,164.577 C241.445,163.124 241.174,162.096 240.631,161.495 C240.088,160.893 239.316,160.592 238.316,160.592 C237.332,160.592 236.529,160.852 235.908,161.372 C235.287,161.891 234.840,162.581 234.566,163.440 L234.566,171.104 L236.477,171.256 L236.477,172.288 L231.250,172.288 L231.250,171.256 L233.160,171.104 L233.160,160.803 L231.250,160.651 ZM208.041,161.342 C207.459,160.827 206.644,160.569 205.598,160.569 C204.895,160.569 204.252,160.665 203.670,160.856 C203.088,161.048 202.602,161.307 202.211,161.635 L202.094,163.334 L200.934,163.334 L200.945,160.897 C201.531,160.444 202.232,160.077 203.049,159.795 C203.865,159.514 204.734,159.374 205.656,159.374 C207.055,159.374 208.180,159.729 209.031,160.440 C209.883,161.151 210.309,162.170 210.309,163.499 L210.309,169.733 C210.309,169.991 210.314,170.239 210.326,170.477 C210.338,170.715 210.363,170.948 210.402,171.174 L211.668,171.256 L211.668,172.288 L209.172,172.288 C209.078,171.858 209.012,171.487 208.973,171.174 C208.933,170.862 208.914,170.546 208.914,170.225 C208.445,170.889 207.820,171.440 207.039,171.877 C206.258,172.315 205.379,172.534 204.402,172.534 C203.160,172.534 202.199,172.213 201.520,171.573 C200.840,170.932 200.500,170.065 200.500,168.971 C200.500,167.799 201.004,166.870 202.012,166.182 C203.020,165.495 204.387,165.151 206.113,165.151 L208.914,165.151 L208.914,163.475 C208.914,162.569 208.623,161.858 208.041,161.342 ZM206.090,166.229 C204.816,166.229 203.799,166.493 203.037,167.020 C202.275,167.547 201.895,168.214 201.895,169.018 C201.895,169.698 202.131,170.247 202.604,170.665 C203.076,171.083 203.727,171.292 204.555,171.292 C205.570,171.292 206.465,171.057 207.238,170.588 C208.012,170.120 208.570,169.514 208.914,168.772 L208.914,166.229 L206.090,166.229 ZM193.035,155.049 L193.035,154.006 L194.945,154.006 L196.352,154.006 L196.352,171.104 L198.262,171.256 L198.262,172.288 L195.098,172.288 L194.980,170.459 C194.559,171.124 194.016,171.635 193.352,171.995 C192.687,172.354 191.906,172.534 191.008,172.534 C189.492,172.534 188.307,171.967 187.451,170.834 C186.596,169.702 186.168,168.190 186.168,166.299 L186.168,166.053 C186.168,164.030 186.596,162.411 187.451,161.196 C188.307,159.981 189.500,159.374 191.031,159.374 C191.914,159.374 192.680,159.559 193.328,159.930 C193.977,160.301 194.516,160.831 194.945,161.518 L194.945,155.202 L193.035,155.049 ZM193.592,161.272 C193.002,160.819 192.238,160.592 191.301,160.592 C190.066,160.592 189.139,161.098 188.518,162.110 C187.896,163.122 187.586,164.436 187.586,166.053 L187.586,166.299 C187.586,167.831 187.892,169.049 188.506,169.956 C189.119,170.862 190.043,171.315 191.277,171.315 C192.176,171.315 192.928,171.112 193.533,170.706 C194.139,170.299 194.609,169.741 194.945,169.030 L194.945,163.030 C194.633,162.311 194.182,161.725 193.592,161.272 ZM173.266,165.245 C174.773,165.581 175.902,166.040 176.652,166.622 C177.402,167.204 177.777,167.995 177.777,168.995 C177.777,170.049 177.350,170.903 176.494,171.555 C175.639,172.208 174.508,172.534 173.102,172.534 C172.164,172.534 171.310,172.403 170.541,172.141 C169.771,171.879 169.105,171.510 168.543,171.034 L168.543,168.479 L169.680,168.479 L169.879,170.284 C170.254,170.659 170.729,170.930 171.303,171.098 C171.877,171.266 172.476,171.350 173.102,171.350 C174.117,171.350 174.918,171.127 175.504,170.682 C176.090,170.237 176.383,169.698 176.383,169.065 C176.383,168.471 176.139,167.952 175.650,167.506 C175.162,167.061 174.281,166.698 173.008,166.417 C171.500,166.088 170.381,165.653 169.650,165.110 C168.920,164.567 168.555,163.807 168.555,162.831 C168.555,161.862 168.965,161.043 169.785,160.376 C170.605,159.708 171.687,159.374 173.031,159.374 C173.961,159.374 174.810,159.516 175.580,159.801 C176.349,160.087 176.976,160.471 177.461,160.956 L177.520,163.522 L176.371,163.522 L176.207,161.729 C175.855,161.362 175.412,161.077 174.877,160.874 C174.342,160.670 173.727,160.569 173.031,160.569 C172.008,160.569 171.240,160.790 170.729,161.231 C170.217,161.672 169.961,162.190 169.961,162.784 C169.961,163.370 170.182,163.854 170.623,164.237 C171.064,164.620 171.945,164.956 173.266,165.245 ZM131.816,160.651 L131.816,159.608 L134.969,159.608 L135.098,161.706 C135.504,160.963 136.047,160.389 136.727,159.983 C137.406,159.577 138.215,159.374 139.152,159.374 C140.121,159.374 140.930,159.610 141.578,160.083 C142.227,160.555 142.691,161.276 142.973,162.245 C143.355,161.354 143.900,160.653 144.607,160.141 C145.314,159.630 146.176,159.374 147.191,159.374 C148.543,159.374 149.588,159.823 150.326,160.721 C151.064,161.620 151.434,163.010 151.434,164.893 L151.434,171.092 L153.344,171.256 L153.344,172.288 L148.105,172.288 L148.105,171.256 L150.016,171.092 L150.016,164.870 C150.016,163.307 149.740,162.204 149.189,161.559 C148.639,160.915 147.871,160.592 146.887,160.592 C145.793,160.592 144.951,160.940 144.361,161.635 C143.771,162.331 143.406,163.217 143.266,164.295 C143.266,164.358 143.267,164.417 143.271,164.471 C143.275,164.526 143.277,164.596 143.277,164.682 L143.277,171.104 L145.187,171.256 L145.187,172.288 L139.961,172.288 L139.961,171.256 L141.871,171.104 L141.871,164.870 C141.871,163.339 141.592,162.243 141.033,161.583 C140.475,160.922 139.707,160.592 138.730,160.592 C137.730,160.592 136.939,160.844 136.357,161.348 C135.775,161.852 135.367,162.530 135.133,163.381 L135.133,171.104 L137.043,171.256 L137.043,172.288 L131.816,172.288 L131.816,171.256 L133.727,171.104 L133.727,160.803 L131.816,160.651 ZM330.000,132.000 L128.000,132.000 L128.000,130.000 L330.000,130.000 L330.000,132.000 ZM125.148,160.651 L125.148,159.608 L126.953,159.608 L128.359,159.608 L128.359,171.104 L130.059,171.256 L130.059,172.288 L127.129,172.288 L127.000,170.202 C126.602,170.944 126.057,171.518 125.365,171.924 C124.674,172.330 123.859,172.534 122.922,172.534 C121.586,172.534 120.541,172.081 119.787,171.174 C119.033,170.268 118.656,168.862 118.656,166.956 L118.656,160.803 L117.086,160.651 L117.086,159.608 L118.656,159.608 L120.051,159.608 L120.051,166.979 C120.051,168.526 120.314,169.635 120.842,170.307 C121.369,170.979 122.117,171.315 123.086,171.315 C124.148,171.315 124.994,171.081 125.623,170.612 C126.252,170.143 126.695,169.495 126.953,168.667 L126.953,160.803 L125.148,160.651 ZM332.084,169.903 C332.846,170.868 333.844,171.350 335.078,171.350 C335.945,171.350 336.687,171.229 337.305,170.987 C337.922,170.745 338.449,170.397 338.887,169.944 L339.484,170.905 C339.008,171.405 338.406,171.801 337.680,172.094 C336.953,172.387 336.086,172.534 335.078,172.534 C333.484,172.534 332.164,171.950 331.117,170.782 C330.070,169.614 329.547,168.127 329.547,166.323 L329.547,165.678 C329.547,163.866 330.068,162.362 331.111,161.167 C332.154,159.971 333.414,159.374 334.891,159.374 C336.445,159.374 337.668,159.866 338.559,160.850 C339.449,161.834 339.895,163.147 339.895,164.788 L339.895,165.983 L330.941,165.983 L330.941,166.323 C330.941,167.745 331.322,168.938 332.084,169.903 ZM331.070,164.799 L338.500,164.799 L338.500,164.448 C338.500,163.346 338.176,162.424 337.527,161.682 C336.879,160.940 336.000,160.569 334.891,160.569 C333.859,160.569 332.990,160.965 332.283,161.758 C331.576,162.551 331.164,163.545 331.047,164.741 L331.070,164.799 ZM261.913,209.518 C264.841,209.518 267.193,212.014 267.193,214.558 C267.193,216.863 265.417,221.663 259.369,221.663 C258.841,221.663 257.544,221.375 257.544,221.375 C257.544,224.207 259.465,225.839 261.769,225.839 C265.498,225.839 268.070,222.888 268.884,221.812 C268.881,221.730 268.872,221.651 268.872,221.567 C268.872,211.918 276.024,194.877 282.937,194.877 C285.097,194.877 286.969,197.085 286.969,198.813 C286.969,202.893 279.865,214.030 275.064,218.111 C275.064,218.111 274.680,220.079 274.680,221.759 C274.680,223.967 275.784,225.551 277.752,225.551 C279.837,225.551 281.889,222.884 282.613,221.838 C282.610,221.747 282.599,221.660 282.599,221.567 C282.599,211.918 289.752,194.877 296.665,194.877 C298.825,194.877 300.697,197.085 300.697,198.813 C300.697,202.893 293.592,214.030 288.792,218.111 C288.792,218.111 288.408,220.079 288.408,221.759 C288.408,223.967 289.512,225.551 291.480,225.551 C293.482,225.551 295.451,223.095 296.245,221.973 C296.242,221.885 296.231,221.800 296.231,221.711 C296.231,214.366 302.328,209.518 306.504,209.518 C309.432,209.518 311.785,212.014 311.785,214.558 C311.785,216.863 310.008,221.663 303.960,221.663 C303.432,221.663 302.136,221.375 302.136,221.375 C302.136,224.207 304.056,225.839 306.360,225.839 C310.591,225.839 313.330,222.044 313.704,221.495 C313.719,221.472 313.739,221.443 313.751,221.423 C313.756,221.416 313.762,221.407 313.767,221.400 C313.779,221.380 313.801,221.347 313.833,221.303 C314.729,220.007 316.574,217.266 317.927,212.878 C317.927,212.878 316.343,211.726 316.343,209.326 C316.343,207.358 317.975,205.774 319.127,205.774 C320.472,205.774 322.104,207.310 322.104,208.270 C322.104,209.518 321.480,210.286 321.480,211.054 C321.480,211.726 322.344,212.062 323.496,212.062 C325.656,212.062 326.328,211.438 327.480,211.438 C328.632,211.438 329.448,212.494 329.448,213.742 C329.448,215.903 325.896,219.983 325.896,223.871 C325.896,224.975 326.520,225.551 327.480,225.551 C330.072,225.551 332.617,221.423 332.617,221.423 C332.617,221.423 333.001,220.751 333.577,220.751 C334.105,220.751 334.585,221.183 334.585,221.711 C334.585,222.143 334.153,222.863 334.153,222.863 C334.153,222.863 330.648,228.768 325.896,228.768 C322.248,228.768 319.799,226.607 319.799,223.967 C319.799,219.743 322.824,216.431 322.824,214.942 C322.824,213.982 319.944,213.790 319.944,213.790 C318.127,218.426 316.313,221.347 315.302,222.841 C315.296,222.851 315.289,222.863 315.289,222.863 C315.289,222.863 311.881,228.768 304.584,228.768 C300.983,228.768 298.127,227.124 296.894,224.607 C295.467,226.349 292.940,228.768 289.896,228.768 C287.043,228.768 284.353,227.245 283.196,224.569 C281.775,226.313 279.235,228.768 276.168,228.768 C273.291,228.768 270.584,227.218 269.443,224.500 C267.862,226.248 264.764,228.768 259.993,228.768 C255.144,228.768 251.640,225.791 251.640,221.711 C251.640,214.366 257.736,209.518 261.913,209.518 ZM264.025,212.926 C264.025,212.302 263.689,211.966 263.161,211.966 C260.521,211.966 257.784,216.911 257.784,219.407 C261.289,219.407 264.025,214.942 264.025,212.926 ZM284.569,198.765 C284.569,198.333 284.329,198.093 283.993,198.093 C282.265,198.093 277.752,206.830 275.784,214.846 C279.097,212.110 284.569,201.693 284.569,198.765 ZM298.297,198.765 C298.297,198.333 298.057,198.093 297.721,198.093 C295.993,198.093 291.480,206.830 289.512,214.846 C292.824,212.110 298.297,201.693 298.297,198.765 ZM308.616,212.926 C308.616,212.302 308.280,211.966 307.752,211.966 C305.112,211.966 302.376,216.911 302.376,219.407 C305.880,219.407 308.616,214.942 308.616,212.926 Z"/>
</svg>