<?xml version="1.0" standalone="no"?>
<!DOCTYPE svg PUBLIC "-//W3C//DTD SVG 20010904//EN"
 "http://www.w3.org/TR/2001/REC-SVG-20010904/DTD/svg10.dtd">
<svg version="1.0" xmlns="http://www.w3.org/2000/svg"
 width="237.000000pt" height="237.000000pt" viewBox="0 0 237.000000 237.000000"
 preserveAspectRatio="xMidYMid meet">
<metadata>
Created by potrace 1.11, written by Peter Selinger 2001-2013
</metadata>
<g transform="translate(0.000000,237.000000) scale(0.100000,-0.100000)"
fill="#000000" stroke="none">
<path d="M1057 2038 c-85 -157 -957 -1836 -957 -1842 0 -3 76 -6 168 -6 l169
0 145 278 145 277 450 3 450 2 148 -280 148 -280 179 0 c99 0 178 4 176 9 -1
4 -230 438 -508 964 l-505 957 -82 0 -82 0 -44 -82z m334 -825 l79 -153 -291
0 -291 0 20 33 c10 17 56 104 102 192 45 88 103 198 128 243 l45 84 64 -124
c35 -67 100 -192 144 -275z"/>
</g>
</svg>
